<svg xmlns="http://www.w3.org/2000/svg" width="42" height="41" viewBox="0 0 42 41" fill="none"><path d="M28.7574 4.48767C28.7574 2.26767 30.5374 0.487671 32.7574 0.487671C34.9774 0.487671 36.7574 2.26767 36.7574 4.48767C36.7574 6.70767 34.9774 8.48767 32.7574 8.48767C30.5374 8.48767 28.7574 6.70767 28.7574 4.48767ZM36.7574 40.4877V28.4877H41.7574L35.7574 10.4877H29.7574L27.4174 17.4877H30.7574V40.4877H36.7574ZM21.7574 19.4877C23.4174 19.4877 24.7574 18.1477 24.7574 16.4877C24.7574 14.8277 23.4174 13.4877 21.7574 13.4877C20.0974 13.4877 18.7574 14.8277 18.7574 16.4877C18.7574 18.1477 20.0974 19.4877 21.7574 19.4877ZM7.75745 8.48767C9.97745 8.48767 11.7574 6.70767 11.7574 4.48767C11.7574 2.26767 9.97745 0.487671 7.75745 0.487671C5.53745 0.487671 3.75745 2.26767 3.75745 4.48767C3.75745 6.70767 5.53745 8.48767 7.75745 8.48767ZM11.7574 40.4877V26.4877H14.7574V10.4877H0.757446V26.4877H3.75745V40.4877H11.7574ZM24.7574 40.4877V32.4877H26.7574V21.4877H16.7574V32.4877H18.7574V40.4877H24.7574Z" fill="#0C4187"></path></svg>