<svg xmlns="http://www.w3.org/2000/svg" width="45" height="37" viewBox="0 0 45 37" fill="none"><path d="M38.1633 6.53198H44.1633V10.532H42.1633V32.532H44.1633V36.532H0.16333V32.532H2.16333V10.532H0.16333V6.53198H6.16333V2.53198C6.16333 2.00155 6.37404 1.49284 6.74912 1.11777C7.12419 0.742696 7.6329 0.531982 8.16333 0.531982H36.1633C36.6938 0.531982 37.2025 0.742696 37.5775 1.11777C37.9526 1.49284 38.1633 2.00155 38.1633 2.53198V6.53198ZM38.1633 10.532H6.16333V32.532H12.1633V18.532H16.1633V32.532H20.1633V18.532H24.1633V32.532H28.1633V18.532H32.1633V32.532H38.1633V10.532ZM10.1633 4.53198V6.53198H34.1633V4.53198H10.1633Z" fill="#0C4187"></path></svg>