<svg xmlns="http://www.w3.org/2000/svg" width="44" height="43" viewBox="0 0 44 43" fill="none"><path d="M43.3399 12.3588V6.30542C43.3399 4.71412 42.7077 3.188 41.5825 2.06278C40.4573 0.937561 38.9312 0.30542 37.3399 0.30542H16.0066C14.4153 0.30542 12.8891 0.937561 11.7639 2.06278C10.6387 3.188 10.0066 4.71412 10.0066 6.30542V29.5321H0.673218V36.8654C0.673218 38.4567 1.30536 39.9828 2.43058 41.1081C3.5558 42.2333 5.08192 42.8654 6.67322 42.8654H32.1132C33.7045 42.8654 35.2306 42.2333 36.3559 41.1081C37.4811 39.9828 38.1132 38.4567 38.1132 36.8654V15.0388H35.4466V36.9188C35.4466 37.8028 35.0954 38.6507 34.4702 39.2758C33.8451 39.9009 32.9973 40.2521 32.1132 40.2521H11.6599C12.3221 39.2667 12.675 38.106 12.6732 36.9188V6.25209C12.6732 5.36803 13.0244 4.52019 13.6495 3.89506C14.2747 3.26994 15.1225 2.91875 16.0066 2.91875C16.8906 2.91875 17.7385 3.26994 18.3636 3.89506C18.9887 4.52019 19.3399 5.36803 19.3399 6.25209V12.3054L43.3399 12.3588Z" fill="#0C4187"></path></svg>